<svg width="285" height="45" viewBox="0 0 285 45" fill="none" xmlns="http://www.w3.org/2000/svg">
  <rect width="284.143" height="45" fill="white"/>
  <path d="M22.5 0C10.0902 0 0 10.0902 0 22.5C0 34.9098 10.0902 45 22.5 45C34.9098 45 45 34.9098 45 22.5C44.884 10.0902 34.9098 0 22.5 0Z" fill="#0B6BDD"/>
  <path fill-rule="evenodd" clip-rule="evenodd" d="M31.909 2.07043V12.6253C29.4494 10.214 26.0801 8.72726 22.3636 8.72726C14.8324 8.72726 8.72723 14.8325 8.72723 22.3636C8.72723 29.8948 14.8324 36 22.3636 36C29.8948 36 36 29.8948 36 22.3636L35.9999 22.3306V4.53453C34.734 3.57477 33.3638 2.7466 31.909 2.07043ZM31.909 22.3637V22.336C31.8941 17.0769 27.6262 12.8182 22.3636 12.8182C17.0918 12.8182 12.8181 17.0918 12.8181 22.3636C12.8181 27.6354 17.0918 31.9091 22.3636 31.9091C27.6354 31.9091 31.909 27.6355 31.909 22.3637Z" fill="#0C3A72"/>
  <path d="M32.006 32.006C30.1033 33.9086 27.6803 35.2058 25.0419 35.7343C22.4036 36.2628 19.6679 35.999 17.1792 34.976C14.6905 33.953 12.56 32.2166 11.0561 29.9853C9.55217 27.7541 8.74194 25.1278 8.72743 22.4371C8.71292 19.7464 9.49478 17.1115 10.9746 14.8642C12.4544 12.6169 14.5659 10.8576 17.0435 9.80786C19.521 8.75808 22.2537 8.46473 24.8976 8.96474C27.5415 9.46476 29.9784 10.7358 31.9014 12.6178L29.0401 15.5415C27.6939 14.2241 25.9881 13.3344 24.1374 12.9844C22.2867 12.6344 20.3738 12.8397 18.6395 13.5746C16.9052 14.3094 15.4271 15.5409 14.3913 17.114C13.3554 18.6872 12.8081 20.5316 12.8183 22.4151C12.8284 24.2986 13.3956 26.137 14.4484 27.6988C15.5011 29.2607 16.9924 30.4762 18.7345 31.1923C20.4766 31.9084 22.3916 32.0931 24.2384 31.7231C26.0853 31.3532 27.7814 30.4451 29.1133 29.1133L32.006 32.006Z" fill="white"/>
  <path d="M54 13.4125C54 12.4835 54.7692 11.7093 55.6922 11.7093H63.6918C65.9994 11.7093 67.8455 12.1738 69.6916 12.948C71.3838 13.7222 72.7683 14.9609 73.6914 16.5093C74.6144 18.0577 75.0759 19.9157 75.0759 21.9287C75.0759 23.9416 74.6144 25.7996 73.6914 27.348C72.7683 28.8964 71.3838 30.1351 69.6916 30.9093C67.9993 31.6835 65.9994 32.148 63.6918 32.148H55.6922C54.7692 32.148 54 31.3738 54 30.4448V13.4125ZM67.5378 26.1093C68.6147 25.1803 69.0762 23.7867 69.0762 21.9287C69.0762 20.0706 68.6147 18.8319 67.5378 17.748C66.4609 16.819 65.0764 16.1996 63.3842 16.1996H61.5381C60.6151 16.1996 59.8459 16.9738 59.8459 17.9028V25.7996C59.8459 26.7287 60.6151 27.5029 61.5381 27.5029C61.5381 27.5029 61.1969 27.5029 63.3842 27.5029C65.5714 27.5029 67.1356 26.5816 67.5378 26.1093Z" fill="#0B6BDD"/>
  <path d="M90.3059 25.3351V30.4448C90.3059 31.3738 89.5367 32.148 88.6137 32.148H86.1523C85.2292 32.148 84.46 31.3738 84.46 30.4448V25.1803C84.46 24.8706 84.3062 24.5609 84.1524 24.2512L78.3065 14.3415C77.6911 13.2577 78.4603 11.7093 79.8449 11.7093H81.9986C82.614 11.7093 83.2293 12.0189 83.537 12.4835L86.1523 17.2835C86.7676 18.3673 88.4599 18.3673 89.0752 17.2835L91.9981 12.4835C92.3058 12.0189 92.9212 11.7093 93.5365 11.7093H95.0749C96.4595 11.7093 97.2287 13.1028 96.6133 14.3415L90.6428 24.2512C90.3059 24.695 90.3059 25.0254 90.3059 25.3351Z" fill="#0B6BDD"/>
  <path d="M121.073 13.4125V30.5997C121.073 31.5287 120.304 32.3029 119.381 32.3029H117.227C116.765 32.3029 116.15 32.1481 115.842 31.6835L110.304 25.0254C109.227 23.7867 107.227 24.5609 107.227 26.1093V30.5997C107.227 31.5287 106.458 32.3029 105.535 32.3029H103.381C102.458 32.3029 101.689 31.5287 101.689 30.5997V13.4125C101.689 12.4835 102.458 11.7093 103.381 11.7093H105.535C105.997 11.7093 106.612 11.8641 106.92 12.3286L112.304 18.9867C113.381 20.2254 115.381 19.4512 115.381 17.9028V13.4125C115.381 12.4835 116.15 11.7093 117.073 11.7093H119.227C120.304 11.7093 121.073 12.4835 121.073 13.4125Z" fill="#0B6BDD"/>
  <path d="M139.689 28.2778H133.381C132.612 28.2778 131.997 28.7423 131.843 29.3616L131.074 31.2197C130.766 31.8391 130.151 32.3036 129.535 32.3036H127.381C126.151 32.3036 125.228 31.0649 125.843 29.8262L133.381 12.639C133.689 12.0196 134.304 11.5551 134.92 11.5551H138.304C138.919 11.5551 139.535 12.0196 139.842 12.639L147.38 29.8262C147.842 30.91 147.073 32.3036 145.842 32.3036H143.688C142.919 32.3036 142.304 31.8391 142.15 31.2197L141.381 29.3616C141.073 28.7423 140.458 28.2778 139.689 28.2778ZM138.15 21.6197C137.898 21.0277 137.359 20.4563 136.453 20.4211C135.474 20.3829 134.87 21.0126 134.612 21.6197C134.15 22.7035 134.92 23.9423 136.15 23.9423H136.304C137.842 23.9423 138.612 22.7035 138.15 21.6197Z" fill="#0B6BDD"/>
  <path d="M170.609 30.5997V27.6577C170.609 25.9545 168.302 25.3351 167.379 26.7287L165.84 29.3609C165.533 29.8255 164.917 30.1351 164.302 30.1351H163.687C163.071 30.1351 162.456 29.8255 162.148 29.3609L160.61 26.8835C159.687 25.3351 157.379 26.1093 157.379 27.8126V30.5997C157.379 31.5287 156.61 32.3029 155.687 32.3029H153.841C152.918 32.3029 152.149 31.5287 152.149 30.5997V13.4125C152.149 12.4835 152.918 11.7093 153.841 11.7093H155.841C156.456 11.7093 157.072 12.0189 157.379 12.4835L162.61 20.9996C163.225 22.0835 164.917 22.0835 165.533 20.9996L170.609 12.4835C170.917 12.0189 171.532 11.7093 172.148 11.7093H174.148C175.071 11.7093 175.84 12.4835 175.84 13.4125V30.5997C175.84 31.5287 175.071 32.3029 174.148 32.3029H172.302C171.379 32.3029 170.609 31.5287 170.609 30.5997Z" fill="#0B6BDD"/>
  <path d="M183.84 11.7093H186.147C187.07 11.7093 187.84 12.4835 187.84 13.4125V30.5997C187.84 31.5287 187.07 32.3029 186.147 32.3029H183.84C182.917 32.3029 182.148 31.5287 182.148 30.5997V13.4125C182.148 12.4835 182.917 11.7093 183.84 11.7093Z" fill="#0B6BDD"/>
  <path d="M198.455 31.2196C196.762 30.2905 195.378 29.0518 194.455 27.3486C193.532 25.6454 193.07 23.9421 193.07 21.7744C193.07 19.6066 193.532 17.9034 194.455 16.2002C195.378 14.8066 196.762 13.5679 198.455 12.6389C200.147 11.7098 202.147 11.2453 204.301 11.2453C206.147 11.2453 207.839 11.555 209.377 12.1743C210.3 12.6389 211.069 13.1034 211.839 13.7227C212.608 14.3421 212.608 15.5808 211.839 16.355L210.608 17.4389C209.993 18.0582 209.07 18.0582 208.3 17.4389C207.223 16.5098 205.993 16.0453 204.608 16.0453C203.531 16.0453 202.454 16.355 201.685 16.8195C200.762 17.284 200.147 18.0582 199.685 18.8324C199.224 19.7615 198.916 20.6905 198.916 21.9292C198.916 23.1679 199.224 24.097 199.685 25.026C200.147 25.955 200.762 26.5744 201.685 27.0389C202.608 27.5034 203.531 27.8131 204.608 27.8131C205.993 27.8131 207.223 27.3486 208.3 26.4196C208.916 25.8002 209.993 25.8002 210.608 26.4196L211.839 27.5034C212.608 28.1228 212.608 29.3615 211.839 30.1357C211.069 30.7551 210.3 31.2196 209.377 31.6841C207.839 32.3035 206.147 32.6131 204.301 32.6131C202.147 32.6131 200.147 32.1486 198.455 31.2196Z" fill="#0C3A72"/>
  <path d="M221.685 31.2201C219.993 30.291 218.608 29.0523 217.685 27.3491C216.762 25.6458 216.147 23.9426 216.147 21.7749C216.147 19.6071 216.608 17.9039 217.685 16.2006C218.608 14.4974 219.993 13.2587 221.685 12.3297C223.377 11.4006 225.377 10.9361 227.531 10.9361C229.684 10.9361 231.684 11.4006 233.377 12.3297C235.069 13.2587 236.453 14.4974 237.376 16.2006C238.299 17.9039 238.915 19.6071 238.915 21.7749C238.915 23.9426 238.453 25.6458 237.376 27.3491C236.453 29.0523 235.069 30.291 233.377 31.2201C231.684 32.1491 229.684 32.6136 227.531 32.6136C225.377 32.6136 223.377 32.1491 221.685 31.2201ZM230.3 27.0394C231.069 26.5749 231.838 25.8007 232.3 25.0265C232.761 24.0974 233.069 23.1684 233.069 21.9297C233.069 20.691 232.761 19.7619 232.3 18.8329C231.838 17.9039 231.223 17.2845 230.3 16.82C229.531 16.3555 228.454 16.0458 227.531 16.0458C226.454 16.0458 225.531 16.3555 224.762 16.82C223.992 17.2845 223.223 18.0587 222.762 18.8329C222.3 19.7619 221.992 20.691 221.992 21.9297C221.992 23.1684 222.3 24.0974 222.762 25.0265C223.223 25.9555 223.839 26.5749 224.762 27.0394C225.531 27.5039 226.608 27.8136 227.531 27.8136C228.608 27.8136 229.531 27.6587 230.3 27.0394Z" fill="#0C3A72"/>
  <path d="M251.99 26.7287H251.529C250.606 26.7287 249.836 27.5029 249.836 28.4319V30.4448C249.836 31.3739 249.067 32.1481 248.144 32.1481H245.837C244.914 32.1481 244.144 31.3739 244.144 30.4448V13.4125C244.144 12.4835 244.914 11.7093 245.837 11.7093H253.529C255.375 11.7093 256.913 12.0189 258.298 12.6383C259.682 13.2577 260.759 14.1867 261.528 15.2706C262.297 16.3544 262.605 17.748 262.605 19.2964C262.605 20.8448 262.297 22.0835 261.528 23.1674C261.067 23.7867 260.605 24.4061 259.99 24.8706C259.221 25.49 259.067 26.419 259.528 27.1932L261.067 29.5158C261.836 30.5997 261.067 32.3029 259.682 32.3029H257.682C257.067 32.3029 256.605 31.9932 256.298 31.5287L253.682 27.5029C253.067 27.0384 252.606 26.7287 251.99 26.7287ZM255.682 16.9738C255.067 16.5093 254.144 16.1996 253.067 16.1996H251.529C250.606 16.1996 249.836 16.9738 249.836 17.9028V20.5351C249.836 21.4641 250.606 22.2383 251.529 22.2383H253.067C254.298 22.2383 255.221 21.9287 255.682 21.4641C256.144 20.9996 256.605 20.2254 256.605 19.2964C256.605 18.3674 256.298 17.5932 255.682 16.9738Z" fill="#0C3A72"/>
  <path d="M284.143 29.5158V30.5997C284.143 31.5287 283.374 32.3029 282.451 32.3029H269.528C268.605 32.3029 267.836 31.5287 267.836 30.5997V13.4125C267.836 12.4835 268.605 11.7093 269.528 11.7093H282.143C283.066 11.7093 283.835 12.4835 283.835 13.4125V14.4964C283.835 15.4254 283.066 16.1996 282.143 16.1996H275.22C274.297 16.1996 273.528 16.9738 273.528 17.9028C273.528 18.8319 274.297 19.6061 275.22 19.6061H280.912C281.835 19.6061 282.605 20.3803 282.605 21.3093V22.2383C282.605 23.1674 281.835 23.9416 280.912 23.9416H275.22C274.297 23.9416 273.528 24.7158 273.528 25.6448V25.9545C273.528 26.8835 274.297 27.6577 275.22 27.6577H282.451C283.374 27.8126 284.143 28.5868 284.143 29.5158Z" fill="#0C3A72"/>
</svg>
